<svg width="40" height="41" viewBox="0 0 40 41" fill="none" xmlns="http://www.w3.org/2000/svg">
<path fill-rule="evenodd" clip-rule="evenodd" d="M39.2188 32.5308C39.6502 32.5308 40 32.181 40 31.7495V4.40674C40 2.25283 38.2477 0.500488 36.0938 0.500488H3.90625C1.75234 0.500488 0 2.25283 0 4.40674V33.4696C0 35.6235 1.75234 37.3758 3.90625 37.3758H32.0689L34.1987 39.5056C34.8612 40.1681 35.7316 40.4994 36.6018 40.4994C37.472 40.4994 38.3423 40.1681 39.0048 39.5056C40.3298 38.1806 40.3298 36.0246 39.0048 34.6995L31.2992 26.9938C31.1527 26.8474 30.954 26.765 30.7468 26.765C30.5396 26.765 30.3409 26.8474 30.1944 26.9938L28.8963 28.2919L28.0936 27.4892C29.7671 25.5611 30.7812 23.0461 30.7812 20.2986C30.7812 17.9102 30.0277 15.639 28.6019 13.7308C27.2239 11.8865 25.2606 10.4949 23.0737 9.81252C22.6619 9.684 22.2237 9.91369 22.0952 10.3256C21.9666 10.7374 22.1963 11.1756 22.6082 11.3041C26.5622 12.5379 29.2188 16.1526 29.2188 20.2986C29.2188 25.4931 24.9927 29.7192 19.7982 29.7192C14.6037 29.7192 10.3777 25.4931 10.3777 20.2986C10.3777 16.1886 13.0045 12.5834 16.914 11.3275C17.3248 11.1956 17.5509 10.7556 17.4189 10.3447C17.287 9.93385 16.8468 9.70807 16.4362 9.83986C14.2391 10.5456 12.3483 11.9034 10.968 13.7664C9.55961 15.6674 8.81516 17.9262 8.81516 20.2986C8.81516 26.3547 13.7421 31.2817 19.7982 31.2817C22.5457 31.2817 25.0607 30.2675 26.9888 28.594L27.7915 29.3967L26.4931 30.6951C26.188 31.0002 26.188 31.4949 26.4931 31.8L30.5064 35.8133H3.90625C2.61391 35.8133 1.5625 34.7619 1.5625 33.4696V7.684C1.58828 7.68658 1.61445 7.68799 1.64094 7.68799H38.4375V31.7495C38.4375 32.181 38.7873 32.5308 39.2188 32.5308ZM30.3284 33.4255L31.6267 32.1271C31.9318 31.8221 31.9318 31.3274 31.6267 31.0222C31.3216 30.7171 30.827 30.7171 30.5218 31.0222L29.2234 32.3206L28.1504 31.2475L29.4484 29.9496L29.4487 29.9492L29.4491 29.9488L30.7469 28.6511L37.9001 35.8044C38.6159 36.5203 38.6159 37.6849 37.9001 38.4007C37.1843 39.1166 36.0195 39.1166 35.3037 38.4007L30.3284 33.4255ZM1.5625 6.12947C1.58828 6.12689 1.61445 6.12549 1.64094 6.12549H38.4375V4.40674C38.4375 3.11439 37.3861 2.06299 36.0938 2.06299H3.90625C2.61391 2.06299 1.5625 3.11439 1.5625 4.40674V6.12947Z" fill="currentColor"/>
<path d="M34.9998 3.31299H17.3486C16.9171 3.31299 16.5674 3.66275 16.5674 4.09424C16.5674 4.52572 16.9171 4.87549 17.3486 4.87549H34.9998C35.4313 4.87549 35.7811 4.52572 35.7811 4.09424C35.7811 3.66275 35.4313 3.31299 34.9998 3.31299Z" fill="currentColor"/>
<path d="M8.67734 3.54189C8.53203 3.39658 8.33047 3.31299 8.125 3.31299C7.91953 3.31299 7.71797 3.39658 7.57266 3.54189C7.42734 3.68721 7.34375 3.88877 7.34375 4.09424C7.34375 4.29971 7.42734 4.50127 7.57266 4.64658C7.71797 4.79189 7.91953 4.87549 8.125 4.87549C8.33047 4.87549 8.53203 4.79189 8.67734 4.64658C8.82266 4.50127 8.90625 4.29971 8.90625 4.09424C8.90625 3.88877 8.82266 3.68721 8.67734 3.54189Z" fill="currentColor"/>
<path d="M5.55234 3.54189C5.40703 3.39658 5.20547 3.31299 5 3.31299C4.79453 3.31299 4.59297 3.39658 4.44766 3.54189C4.30234 3.68721 4.21875 3.88877 4.21875 4.09424C4.21875 4.29971 4.30234 4.50127 4.44766 4.64658C4.59297 4.79189 4.79453 4.87549 5 4.87549C5.20547 4.87549 5.40703 4.79189 5.55234 4.64658C5.69766 4.50127 5.78125 4.29971 5.78125 4.09424C5.78125 3.88877 5.69766 3.68721 5.55234 3.54189Z" fill="currentColor"/>
<path d="M11.8023 3.54189C11.657 3.39658 11.4555 3.31299 11.25 3.31299C11.0445 3.31299 10.843 3.39658 10.6977 3.54189C10.5523 3.68721 10.4688 3.88877 10.4688 4.09424C10.4688 4.29971 10.5523 4.50127 10.6977 4.64658C10.843 4.79189 11.0445 4.87549 11.25 4.87549C11.4555 4.87549 11.657 4.79189 11.8023 4.64658C11.9477 4.50127 12.0312 4.29971 12.0312 4.09424C12.0312 3.88877 11.9477 3.68721 11.8023 3.54189Z" fill="currentColor"/>
<path d="M19.8278 9.31567H19.7983C19.3669 9.31567 19.0171 9.66544 19.0171 10.0969C19.0171 10.5284 19.3669 10.8782 19.7983 10.8782H19.8209C19.8221 10.8782 19.8233 10.8782 19.8244 10.8782C20.2543 10.8782 20.6037 10.5307 20.6056 10.1004C20.6075 9.66896 20.2593 9.31755 19.8278 9.31567Z" fill="currentColor"/>
<path d="M10.3385 31.2817H5C4.56852 31.2817 4.21875 31.6315 4.21875 32.063C4.21875 32.4945 4.56852 32.8442 5 32.8442H10.3385C10.77 32.8442 11.1198 32.4945 11.1198 32.063C11.1198 31.6315 10.77 31.2817 10.3385 31.2817Z" fill="currentColor"/>
<path d="M8.44289 28.1567H5C4.56852 28.1567 4.21875 28.5065 4.21875 28.938C4.21875 29.3695 4.56852 29.7192 5 29.7192H8.44289C8.87437 29.7192 9.22414 29.3695 9.22414 28.938C9.22414 28.5065 8.87437 28.1567 8.44289 28.1567Z" fill="currentColor"/>
<path d="M13.8603 31.5106C13.7142 31.3653 13.5134 31.2817 13.3071 31.2817C13.1017 31.2817 12.9001 31.3653 12.7548 31.5106C12.6095 31.656 12.5259 31.8575 12.5259 32.063C12.5259 32.2685 12.6095 32.47 12.7548 32.6153C12.9001 32.7606 13.1017 32.8442 13.3071 32.8442C13.5134 32.8442 13.7142 32.7606 13.8603 32.6153C14.0056 32.47 14.0884 32.2685 14.0884 32.063C14.0884 31.8575 14.0056 31.656 13.8603 31.5106Z" fill="currentColor"/>
<path d="M35.0002 9.71924H28.8965C28.465 9.71924 28.1152 10.069 28.1152 10.5005C28.1152 10.932 28.465 11.2817 28.8965 11.2817H35.0002C35.4316 11.2817 35.7814 10.932 35.7814 10.5005C35.7814 10.069 35.4316 9.71924 35.0002 9.71924Z" fill="currentColor"/>
<path d="M35 12.8442H31.9727C31.5412 12.8442 31.1914 13.194 31.1914 13.6255C31.1914 14.057 31.5412 14.4067 31.9727 14.4067H35C35.4315 14.4067 35.7812 14.057 35.7812 13.6255C35.7812 13.194 35.4315 12.8442 35 12.8442Z" fill="currentColor"/>
<path fill-rule="evenodd" clip-rule="evenodd" d="M25.7329 22.2188C26.1644 22.2188 26.5141 21.869 26.5141 21.4375C26.5141 21.0061 26.1644 20.6563 25.7329 20.6563H24.549C24.5372 20.4363 24.5096 20.2204 24.4681 20.0095L25.6641 18.8058C25.9682 18.4997 25.9666 18.005 25.6605 17.701C25.3545 17.3968 24.8598 17.3985 24.5557 17.7045L23.8369 18.428C23.4014 17.7402 22.791 17.1741 22.0681 16.7928V16.245C22.0679 15.0631 21.1062 14.1014 19.9242 14.1014H19.6983C18.5163 14.1014 17.5546 15.0631 17.5546 16.2451V16.7929C16.826 17.1773 16.2116 17.7492 15.7755 18.4444L15.0405 17.7046C14.7363 17.3985 14.2416 17.397 13.9356 17.7011C13.6296 18.0053 13.628 18.4999 13.9321 18.806L15.1505 20.0323C15.1119 20.2343 15.0857 20.4407 15.0741 20.651H13.8633C13.4318 20.651 13.082 21.0008 13.082 21.4323C13.082 21.8638 13.4318 22.2135 13.8633 22.2135H15.0734C15.0845 22.426 15.1109 22.6344 15.1498 22.8385L13.9322 24.064C13.628 24.3701 13.6297 24.8648 13.9357 25.1689C14.0881 25.3203 14.2873 25.3959 14.4863 25.3959C14.6871 25.3959 14.8879 25.3189 15.0405 25.1653L15.7735 24.4275C16.5961 25.7411 18.0555 26.6171 19.7164 26.6171H19.9064C21.5604 26.6171 23.0145 25.7483 23.8388 24.4438L24.5556 25.1652C24.7084 25.3189 24.9091 25.3958 25.1098 25.3958C25.3089 25.3958 25.5081 25.3202 25.6605 25.1688C25.9665 24.8646 25.9681 24.37 25.664 24.0639L24.4689 22.861C24.5098 22.6515 24.5373 22.4373 24.549 22.2188H25.7329ZM19.1172 16.2451C19.1172 15.9246 19.3779 15.6639 19.6984 15.6639H19.9243C20.2448 15.6639 20.5055 15.9246 20.5055 16.2451V16.258H19.9064H19.7164H19.1172V16.2451ZM19.9062 25.0546C21.6085 25.0546 22.9934 23.6698 22.9934 21.9676V20.9076C22.9934 19.2053 21.6085 17.8205 19.9062 17.8205H19.7162C18.014 17.8205 16.6291 19.2053 16.6291 20.9076V21.9676C16.6291 23.6698 18.014 25.0546 19.7162 25.0546H19.9062Z" fill="currentColor"/>
</svg>
