<svg width="22" height="22" viewBox="0 0 22 22" fill="none" xmlns="http://www.w3.org/2000/svg">
<path fill-rule="evenodd" clip-rule="evenodd" d="M0 11C0 4.928 4.928 0 11 0C17.072 0 22 4.928 22 11C22 17.072 17.072 22 11 22C4.928 22 0 17.072 0 11ZM4.07 11.77L8.019 15.719C8.448 16.148 9.152 16.148 9.57 15.719L17.919 7.37C18.348 6.941 18.348 6.248 17.919 5.819C17.49 5.39 16.797 5.39 16.368 5.819L8.8 13.387L5.621 10.219C5.192 9.79 4.499 9.79 4.07 10.219C3.641 10.648 3.641 11.341 4.07 11.77Z" fill="#72FF3D"/>
</svg>
