<svg width="40" height="41" viewBox="0 0 40 41" fill="none" xmlns="http://www.w3.org/2000/svg">
<path fill-rule="evenodd" clip-rule="evenodd" d="M39.9975 8.66403C39.9953 8.63123 39.9916 8.59905 39.9854 8.56748L39.9852 8.56602C39.985 8.56498 39.9849 8.56399 39.9845 8.56315C39.9777 8.52818 39.9681 8.49444 39.9567 8.46164C39.9545 8.45514 39.952 8.44864 39.9495 8.44245C39.9381 8.4115 39.9251 8.38149 39.91 8.3524C39.8902 8.31464 39.8716 8.28555 39.8515 8.25739C39.8469 8.25089 39.8419 8.24439 39.837 8.2382C39.8156 8.21035 39.7934 8.18342 39.7689 8.15897L31.8474 0.232106C31.8217 0.206729 31.7951 0.184447 31.7673 0.163402C31.763 0.159913 31.7586 0.156696 31.7543 0.15348L31.7543 0.153438L31.7478 0.148548C31.7196 0.128432 31.6906 0.109863 31.6602 0.0934612L31.6525 0.0897474C31.6238 0.0748927 31.5941 0.0618948 31.5634 0.0504443C31.5569 0.0479685 31.5505 0.0454927 31.5437 0.0433264C31.5109 0.0318758 31.4775 0.0222821 31.4428 0.0154737L31.4369 0.0145453C31.406 0.00866527 31.3742 0.00495158 31.342 0.00278526L31.3402 0.00267534L31.3402 0.00267434C31.331 0.00209343 31.3219 0.00152887 31.3129 0.0012379L31.3026 0.000664231C31.2975 0.000331416 31.2924 0 31.2873 0H9.10919C8.67156 0 8.31682 0.354967 8.31682 0.792563V4.84296H2.43402C1.09206 4.84296 0 5.9354 0 7.27852V16.6738C0 18.017 1.09206 19.1094 2.43402 19.1094H8.31682V39.7708C8.31682 40.2084 8.67156 40.5634 9.10888 40.5634H39.2079C39.6455 40.5634 40 40.2084 40 39.7708V8.7185C40.0001 8.71463 39.9999 8.71082 39.9997 8.70704C39.9996 8.70531 39.9994 8.70359 39.9993 8.70187L39.9987 8.6922C39.9984 8.68291 39.9981 8.67363 39.9975 8.66403ZM32.0793 2.70604L37.2956 7.92594H32.0793V2.70604ZM9.90125 19.1094V38.9783H38.4158V9.51107H31.2873C30.8496 9.51107 30.4952 9.1561 30.4952 8.7185V1.58513H9.90094V4.84296H16.4966C17.8389 4.84296 18.9306 5.93571 18.9306 7.27852V16.6738C18.9306 18.0037 17.8602 19.088 16.5362 19.1091C16.5288 19.1094 16.5214 19.1094 16.5136 19.1094H16.4969C16.0593 19.1094 15.7049 18.7544 15.7049 18.3168C15.7049 17.8792 16.0593 17.5243 16.4969 17.5243C16.9655 17.5243 17.3465 17.143 17.3465 16.6738V7.27852C17.3465 6.80967 16.9655 6.42809 16.4969 6.42809H2.43402C1.96547 6.42809 1.58413 6.80967 1.58413 7.27852V16.6738C1.58413 17.1427 1.96547 17.5243 2.43402 17.5243H10.1771C10.6148 17.5243 10.9692 17.8792 10.9692 18.3168C10.9692 18.7544 10.6148 19.1094 10.1771 19.1094H9.90125Z" fill="currentColor"/>
<path d="M18.8222 25.3521H34.6993C35.1379 25.3521 35.4931 24.974 35.4931 24.5071C35.4931 24.0405 35.1379 23.662 34.6993 23.662H18.8222C18.3839 23.662 18.0283 24.0405 18.0283 24.5071C18.0283 24.974 18.3839 25.3521 18.8222 25.3521Z" fill="currentColor"/>
<path d="M15.5065 28.7323C15.7073 28.7323 15.9078 28.6564 16.0609 28.5052C16.367 28.2027 16.367 27.7124 16.0609 27.4097L14.2872 25.6572L16.1086 23.8575C16.4147 23.5551 16.4147 23.0645 16.1086 22.762C15.8025 22.4595 15.306 22.4595 14.9999 22.762L12.6241 25.1094C12.318 25.4119 12.318 25.9025 12.6241 26.205L14.9521 28.5052C15.1052 28.6567 15.306 28.7323 15.5065 28.7323Z" fill="currentColor"/>
<path d="M32.9348 30.6493C32.6287 30.3469 32.1326 30.3469 31.8262 30.6493C31.5201 30.9518 31.5201 31.4424 31.8262 31.7449L33.6 33.4975L31.7784 35.2972C31.4723 35.5997 31.4723 36.0903 31.7784 36.3928C31.9318 36.544 32.1322 36.6197 32.3327 36.6197C32.5335 36.6197 32.734 36.544 32.8871 36.3928L35.2627 34.0453C35.5691 33.7428 35.5691 33.2522 35.2627 32.9497L32.9348 30.6493Z" fill="currentColor"/>
<path d="M29.6481 27.0422H18.8029C18.3753 27.0422 18.0283 27.4204 18.0283 27.8873C18.0283 28.3539 18.3753 28.7324 18.8029 28.7324H29.6481C30.0758 28.7324 30.4227 28.3539 30.4227 27.8873C30.4227 27.4204 30.0758 27.0422 29.6481 27.0422V27.0422Z" fill="currentColor"/>
<path d="M29.6481 30.4225H18.8029C18.3753 30.4225 18.0283 30.801 18.0283 31.2676C18.0283 31.7341 18.3753 32.1126 18.8029 32.1126H29.6481C30.0758 32.1126 30.4227 31.7341 30.4227 31.2676C30.4227 30.801 30.0758 30.4225 29.6481 30.4225V30.4225Z" fill="currentColor"/>
<path d="M29.629 33.2394H13.7518C13.3132 33.2394 12.958 33.6179 12.958 34.0845C12.958 34.551 13.3132 34.9295 13.7518 34.9295H29.629C30.0673 34.9295 30.4228 34.551 30.4228 34.0845C30.4228 33.6179 30.0673 33.2394 29.629 33.2394V33.2394Z" fill="currentColor"/>
<path d="M7.1358 7.88733C6.72079 7.88733 6.38468 8.24057 6.38468 8.67603V13.4209C6.38468 13.8489 6.05296 14.1972 5.64528 14.1972H5.62153C5.21385 14.1972 4.88243 13.8489 4.88243 13.4209C4.88243 12.9854 4.54602 12.6322 4.1313 12.6322C3.71629 12.6322 3.37988 12.9854 3.37988 13.4209C3.37988 14.7186 4.38559 15.7747 5.62153 15.7747H5.64528C6.88122 15.7747 7.88693 14.7186 7.88693 13.4209V8.67603C7.88693 8.24057 7.55052 7.88733 7.1358 7.88733Z" fill="currentColor"/>
<path d="M14.6476 13.3888C14.6476 12.2035 13.7223 11.0033 11.9538 11.0033C11.1996 11.0033 11.1616 10.3625 11.1616 10.234C11.1616 10.1056 11.1996 9.46473 11.9538 9.46473H12.9907C13.0418 9.85123 13.374 10.1493 13.7762 10.1493C14.2136 10.1493 14.5684 9.7961 14.5684 9.36064V8.67603C14.5684 8.24057 14.2136 7.88733 13.7762 7.88733H11.9538C10.3935 7.88733 9.57715 9.06776 9.57715 10.234C9.57715 11.4 10.3935 12.5807 11.9538 12.5807C12.7723 12.5807 13.0631 13.0162 13.0631 13.3888C13.0631 13.7618 12.7723 14.1972 11.9538 14.1972H11.1613C11.1514 13.7704 10.8006 13.4273 10.3694 13.4273C9.93196 13.4273 9.57715 13.7806 9.57715 14.216V14.986C9.57715 15.4214 9.93196 15.7747 10.3694 15.7747H11.9538C13.7223 15.7747 14.6476 14.5745 14.6476 13.3888Z" fill="currentColor"/>
<path d="M12.6423 18.9076C12.6812 18.9462 12.7241 18.9818 12.7706 19.0121C12.8162 19.0425 12.8653 19.0689 12.9168 19.09C12.9676 19.1111 13.0207 19.1269 13.0748 19.1382C13.1289 19.149 13.1847 19.155 13.2398 19.155C13.2945 19.155 13.3503 19.149 13.4051 19.1382C13.4585 19.1269 13.5116 19.1111 13.5631 19.09C13.6139 19.0689 13.663 19.0425 13.7086 19.0121C13.7551 18.9818 13.798 18.9462 13.8369 18.9076C13.8758 18.8686 13.9115 18.8248 13.9425 18.7789C13.9732 18.7324 13.9992 18.6836 14.0203 18.6328C14.0415 18.5823 14.0576 18.5288 14.0685 18.4747C14.0794 18.42 14.0847 18.3649 14.0847 18.3091C14.0847 18.2544 14.0794 18.1993 14.0685 18.1445C14.0576 18.0904 14.0415 18.0373 14.0203 17.9865C13.9992 17.9357 13.9732 17.8869 13.9425 17.8403C13.9115 17.7948 13.8758 17.7509 13.8369 17.712C13.798 17.6731 13.7551 17.6375 13.7086 17.6071C13.663 17.5768 13.6139 17.5507 13.5631 17.5296C13.5116 17.5085 13.4585 17.4923 13.4051 17.4814C13.2962 17.4593 13.1837 17.4593 13.0748 17.4814C13.0207 17.4923 12.9676 17.5085 12.9168 17.5296C12.8653 17.5507 12.8162 17.5768 12.7706 17.6071C12.7241 17.6375 12.6812 17.6731 12.6423 17.712C12.6034 17.7509 12.5677 17.7948 12.5374 17.8403C12.507 17.8869 12.481 17.936 12.4599 17.9865C12.4387 18.0373 12.4226 18.0904 12.4117 18.1445C12.4005 18.1993 12.3945 18.2544 12.3945 18.3091C12.3945 18.3649 12.4005 18.42 12.4117 18.4747C12.4226 18.5288 12.4387 18.5823 12.4599 18.6328C12.481 18.6836 12.507 18.7327 12.5374 18.7789C12.5677 18.8248 12.6034 18.8686 12.6423 18.9076Z" fill="currentColor"/>
</svg>
