<svg width="40" height="40" viewBox="0 0 40 40" fill="none" xmlns="http://www.w3.org/2000/svg">
<path d="M31.3771 30.948L30.0519 26.9042C29.812 26.1859 29.1318 25.7031 28.3594 25.7031H15.0044C14.6808 25.7031 14.4184 25.9655 14.4184 26.2891C14.4184 26.6127 14.6808 26.875 15.0044 26.875H28.3594C28.6269 26.875 28.8603 27.0359 28.9393 27.2723L29.6685 29.4975C29.523 29.4686 29.3727 29.4531 29.2188 29.4531H10.7812C10.6232 29.4531 10.4688 29.4691 10.3196 29.4996L11.0597 27.2754C11.1397 27.0359 11.3731 26.875 11.6406 26.875H12.4898C12.8134 26.875 13.0758 26.6127 13.0758 26.2891C13.0758 25.9655 12.8134 25.7031 12.4898 25.7031H11.6406C10.8682 25.7031 10.188 26.1859 9.94797 26.9048L8.60344 30.9455C8.58758 30.9931 8.57852 31.0421 8.57523 31.0912C8.51133 31.3023 8.47656 31.5261 8.47656 31.7578V37.6953C8.47656 38.9662 9.51039 40 10.7812 40H29.2188C30.4896 40 31.5234 38.9662 31.5234 37.6953V36.8466C31.5234 36.523 31.2611 36.2607 30.9375 36.2607C30.6139 36.2607 30.3516 36.523 30.3516 36.8466V37.6953C30.3516 38.3199 29.8434 38.8281 29.2188 38.8281H10.7812C10.1566 38.8281 9.64844 38.3199 9.64844 37.6953V31.7578C9.64844 31.1332 10.1566 30.625 10.7812 30.625H29.2188C29.8434 30.625 30.3516 31.1332 30.3516 31.7578V34.3284C30.3516 34.652 30.6139 34.9144 30.9375 34.9144C31.2611 34.9144 31.5234 34.652 31.5234 34.3284V31.7578C31.5234 31.4756 31.4722 31.2052 31.379 30.9551C31.3782 30.9527 31.3779 30.9503 31.3771 30.948Z" fill="currentColor"/>
<path fill-rule="evenodd" clip-rule="evenodd" d="M10.8203 32.3828C10.8203 32.0592 11.0827 31.7969 11.4062 31.7969H28.5938C28.9173 31.7969 29.1797 32.0592 29.1797 32.3828V37.0703C29.1797 37.3939 28.9173 37.6562 28.5938 37.6562H11.4062C11.0827 37.6562 10.8203 37.3939 10.8203 37.0703V32.3828ZM19.4922 33.7109V32.9688H18.3203V33.7109C18.3203 34.0341 18.5831 34.2969 18.9062 34.2969C19.2294 34.2969 19.4922 34.0341 19.4922 33.7109ZM15.5854 32.9688V33.7109C15.5854 34.0341 15.3226 34.2969 14.9995 34.2969C14.6763 34.2969 14.4135 34.0341 14.4135 33.7109V32.9688H15.5854ZM11.9922 36.4844H28.0078V32.9688H20.6641V33.7109C20.6641 34.6802 19.8755 35.4688 18.9062 35.4688C17.937 35.4688 17.1484 34.6802 17.1484 33.7109V32.9688H16.7573V33.7109C16.7573 34.6802 15.9688 35.4688 14.9995 35.4688C14.0302 35.4688 13.2416 34.6802 13.2416 33.7109V32.9688H11.9922V36.4844Z" fill="currentColor"/>
<path fill-rule="evenodd" clip-rule="evenodd" d="M29.9234 11.8242C29.9234 11.3543 29.7407 10.9128 29.4089 10.581C29.0768 10.2489 28.6353 10.066 28.1657 10.066C27.6959 10.066 27.2545 10.249 26.9232 10.581L20.5416 16.9627C20.3655 16.9314 20.1848 16.9141 20 16.9141C18.2984 16.9141 16.9141 18.2985 16.9141 20C16.9141 21.7016 18.2984 23.086 20 23.086C21.7016 23.086 23.0859 21.7016 23.0859 20C23.0859 19.8092 23.0677 19.6226 23.0343 19.4413L29.4088 13.0667C29.7407 12.7349 29.9234 12.2936 29.9234 11.8242ZM20 21.9141C18.9446 21.9141 18.0859 21.0554 18.0859 20C18.0859 18.9446 18.9446 18.086 20 18.086C21.0554 18.086 21.9141 18.9446 21.9141 20C21.9141 21.0554 21.0554 21.9141 20 21.9141ZM22.5516 18.2667L28.5802 12.2381C28.6907 12.1275 28.7516 11.9806 28.7516 11.8243C28.7516 11.6674 28.6907 11.5203 28.5802 11.4098C28.4695 11.2989 28.3223 11.238 28.1657 11.238C28.0094 11.238 27.8625 11.2989 27.7522 11.4094L21.7214 17.4401C22.0478 17.6603 22.3299 17.9414 22.5516 18.2667Z" fill="currentColor"/>
<path fill-rule="evenodd" clip-rule="evenodd" d="M32.2991 4.22781C34.6437 6.05859 36.5828 8.42906 37.9069 11.083C39.2958 13.867 40 16.867 40 20C40 20.3236 39.7377 20.5859 39.4141 20.5859H34.7266C34.403 20.5859 34.1406 20.3236 34.1406 20C34.1406 12.2028 27.7972 5.85938 20 5.85938C12.2028 5.85938 5.85938 12.2028 5.85938 20C5.85938 20.3236 5.59703 20.5859 5.27344 20.5859H0.585938C0.262344 20.5859 0 20.3236 0 20C0 14.6488 2.08523 9.62172 5.87172 5.84461C9.65 2.07562 14.6675 0 20 0C23.5869 0 27.1054 0.960781 30.1753 2.77844C30.4537 2.94328 30.5458 3.30273 30.3809 3.58117C30.216 3.85961 29.8566 3.95164 29.5782 3.7868C26.689 2.07609 23.377 1.17188 20 1.17188C9.81398 1.17188 1.49117 9.30188 1.18086 19.4141H4.69859C5.00781 11.2414 11.753 4.6875 20 4.6875C24.0112 4.6875 27.667 6.23836 30.3998 8.77141L32.8927 6.27852C32.474 5.88609 32.0363 5.5093 31.5779 5.15141C31.3228 4.95227 31.2776 4.58406 31.4767 4.32898C31.6758 4.07398 32.0439 4.02859 32.2991 4.22781ZM31.2281 9.60047C33.6373 12.1998 35.1584 15.6334 35.3014 19.4141V19.414H38.8192C38.6783 14.7729 36.8633 10.4352 33.7226 7.10594L31.2281 9.60047Z" fill="currentColor"/>
</svg>
