<svg width="40" height="41" viewBox="0 0 40 41" fill="none" xmlns="http://www.w3.org/2000/svg">
<path fill-rule="evenodd" clip-rule="evenodd" d="M39.9229 5.28479C39.9554 4.14842 39.0631 3.19957 37.9268 3.1623H26.5483C26.2302 1.61454 24.8689 0.50296 23.2887 0.500854H6.65451C5.07447 0.503038 3.71306 1.61454 3.39494 3.1623H1.99696C0.860666 3.19957 -0.0316535 4.14834 0.000861078 5.28479V32.9774C-0.0316535 34.1138 0.860666 35.0626 1.99696 35.0999H14.8624L13.4979 39.0921H12.6429C12.2754 39.0921 11.9775 39.39 11.9775 39.7575C11.9775 40.1249 12.2754 40.4228 12.6429 40.4228H27.2809C27.6484 40.4228 27.9463 40.1249 27.9463 39.7575C27.9463 39.39 27.6484 39.0921 27.2809 39.0921H26.426L25.0614 35.0999H37.9269C39.0632 35.0626 39.9555 34.1139 39.923 32.9774V5.28479H39.9229ZM4.6584 3.82772C4.65957 2.72581 5.5526 1.83278 6.65451 1.83161H23.2887C24.3906 1.83278 25.2836 2.72581 25.2848 3.82772V13.8082C25.2836 14.9101 24.3906 15.8032 23.2887 15.8043H12.6428C12.4664 15.8044 12.2972 15.8745 12.1724 15.9993L8.65061 19.521V16.4697C8.65061 16.1022 8.35275 15.8043 7.98527 15.8043H7.31993C5.85076 15.8026 4.66012 14.612 4.65848 13.1429V3.82772H4.6584ZM16.2685 35.0999L14.904 39.0921H25.0197L23.6551 35.0999H16.2685ZM37.9268 33.7692H1.99696C1.59876 33.7264 1.30527 33.3771 1.33162 32.9775V29.777H38.5922V32.9775C38.6185 33.3771 38.325 33.7264 37.9268 33.7692ZM38.5921 28.4463V5.28479C38.6185 4.88518 38.325 4.53594 37.9269 4.49306H26.6156V13.8081C26.6134 15.6446 25.1252 17.1328 23.2887 17.135H12.9184L9.59151 20.4619H15.3043C15.6718 20.4619 15.9697 20.7597 15.9697 21.1272C15.9697 21.4947 15.6718 21.7926 15.3043 21.7926H6.65458C6.2871 21.7926 5.98924 21.4947 5.98924 21.1272C5.98924 20.7597 6.2871 20.4619 6.65458 20.4619H7.31993V17.135C5.1161 17.1326 3.33014 15.3466 3.32772 13.1428V4.49306H1.99696C1.59883 4.53586 1.30527 4.88518 1.33162 5.28479V28.4463H38.5921Z" fill="currentColor"/>
<path d="M9.51116 11.6172C9.77167 11.873 10.1896 11.871 10.4478 11.613C10.7059 11.3549 10.7078 10.9369 10.452 10.6763L8.26094 8.48531L10.452 6.29428C10.709 6.03401 10.7077 5.61506 10.449 5.35635C10.1904 5.09771 9.77143 5.09639 9.51108 5.35338L6.84972 8.0149C6.72488 8.13966 6.65479 8.30886 6.65479 8.48531C6.65479 8.66177 6.72488 8.83097 6.84972 8.95572L9.51116 11.6172Z" fill="currentColor"/>
<path d="M12.6429 9.81599C13.0104 9.81599 13.3082 9.51814 13.3082 9.15065V5.82379C13.3082 5.4563 13.0104 5.15845 12.6429 5.15845C12.2754 5.15845 11.9775 5.4563 11.9775 5.82379V9.15065C11.9775 9.51806 12.2755 9.81599 12.6429 9.81599Z" fill="currentColor"/>
<path d="M12.0303 11.3995C12.0436 11.4405 12.0639 11.4787 12.0904 11.5126C12.1133 11.5508 12.14 11.5866 12.1704 11.6192C12.2351 11.6778 12.3092 11.7251 12.3897 11.7589C12.4698 11.7931 12.5558 11.8111 12.6428 11.8122C12.8189 11.8095 12.9876 11.7406 13.1152 11.6192C13.1418 11.5857 13.1685 11.5526 13.1948 11.5126C13.2214 11.4787 13.2417 11.4405 13.255 11.3995C13.2741 11.3617 13.2876 11.3213 13.295 11.2796C13.3026 11.2357 13.3071 11.1913 13.3083 11.1467C13.3057 10.9706 13.2368 10.8019 13.1153 10.6743C12.9209 10.4913 12.6384 10.4368 12.3899 10.5343C12.3093 10.5681 12.2351 10.6154 12.1705 10.6743C12.049 10.8018 11.98 10.9705 11.9775 11.1467C11.9786 11.1913 11.983 11.2357 11.9909 11.2796C11.9978 11.3214 12.0112 11.3618 12.0303 11.3995Z" fill="currentColor"/>
<path d="M15.3045 9.15063H17.3006C17.6681 9.15063 17.9659 8.85277 17.9659 8.48529C17.9659 8.1178 17.6681 7.81995 17.3006 7.81995H15.3045C14.937 7.81995 14.6392 8.1178 14.6392 8.48529C14.6392 8.85277 14.937 9.15063 15.3045 9.15063Z" fill="currentColor"/>
<path d="M19.9617 9.15063H21.9578C22.3253 9.15063 22.6232 8.85277 22.6232 8.48529C22.6232 8.1178 22.3253 7.81995 21.9578 7.81995H19.9617C19.5942 7.81995 19.2964 8.1178 19.2964 8.48529C19.2964 8.85277 19.5942 9.15063 19.9617 9.15063Z" fill="currentColor"/>
<path d="M3.99328 20.4619H3.32794C2.96045 20.4619 2.6626 20.7598 2.6626 21.1273C2.6626 21.4947 2.96045 21.7926 3.32794 21.7926H3.99328C4.36077 21.7926 4.65862 21.4947 4.65862 21.1273C4.65862 20.7598 4.36077 20.4619 3.99328 20.4619Z" fill="currentColor"/>
<path d="M3.99328 23.1233H3.32794C2.96045 23.1233 2.6626 23.4211 2.6626 23.7886C2.6626 24.1561 2.96045 24.454 3.32794 24.454H3.99328C4.36077 24.454 4.65862 24.1561 4.65862 23.7886C4.65862 23.4211 4.36077 23.1233 3.99328 23.1233Z" fill="currentColor"/>
<path d="M3.99328 25.7848H3.32794C2.96045 25.7848 2.6626 26.0827 2.6626 26.4501C2.6626 26.8176 2.96045 27.1155 3.32794 27.1155H3.99328C4.36077 27.1155 4.65862 26.8175 4.65862 26.4501C4.65862 26.0826 4.36077 25.7848 3.99328 25.7848Z" fill="currentColor"/>
<path d="M17.9656 21.7926H22.6232C22.9907 21.7926 23.2885 21.4947 23.2885 21.1273C23.2885 20.7598 22.9907 20.4619 22.6232 20.4619H17.9656C17.5981 20.4619 17.3003 20.7598 17.3003 21.1273C17.3003 21.4947 17.5981 21.7926 17.9656 21.7926Z" fill="currentColor"/>
<path d="M25.285 21.7926H27.2811C27.6486 21.7926 27.9464 21.4947 27.9464 21.1273C27.9464 20.7598 27.6486 20.4619 27.2811 20.4619H25.285C24.9175 20.4619 24.6196 20.7598 24.6196 21.1273C24.6196 21.4947 24.9175 21.7926 25.285 21.7926Z" fill="currentColor"/>
<path d="M29.9422 21.7926H32.6036C32.9711 21.7926 33.269 21.4947 33.269 21.1273C33.269 20.7598 32.9711 20.4619 32.6036 20.4619H29.9422C29.5747 20.4619 29.2769 20.7598 29.2769 21.1273C29.2769 21.4947 29.5747 21.7926 29.9422 21.7926Z" fill="currentColor"/>
<path d="M36.5962 20.4619H35.2654C34.898 20.4619 34.6001 20.7598 34.6001 21.1273C34.6001 21.4947 34.898 21.7926 35.2654 21.7926H36.5962C36.9637 21.7926 37.2615 21.4947 37.2615 21.1273C37.2615 20.7598 36.9637 20.4619 36.5962 20.4619Z" fill="currentColor"/>
<path d="M8.65069 24.4541H12.6429C13.0104 24.4541 13.3082 24.1562 13.3082 23.7888C13.3082 23.4213 13.0104 23.1234 12.6429 23.1234H8.65069C8.28321 23.1234 7.98535 23.4213 7.98535 23.7888C7.98535 24.1562 8.28329 24.4541 8.65069 24.4541Z" fill="currentColor"/>
<path d="M19.2967 23.7888C19.2967 23.4213 18.9988 23.1234 18.6314 23.1234H15.3045C14.937 23.1234 14.6392 23.4213 14.6392 23.7888C14.6392 24.1562 14.937 24.4541 15.3045 24.4541H18.6314C18.9988 24.4541 19.2967 24.1562 19.2967 23.7888Z" fill="currentColor"/>
<path d="M24.6196 23.7888C24.6196 23.4213 24.3217 23.1234 23.9542 23.1234H21.2928C20.9253 23.1234 20.6274 23.4213 20.6274 23.7888C20.6274 24.1562 20.9254 24.4541 21.2928 24.4541H23.9542C24.3217 24.4541 24.6196 24.1562 24.6196 23.7888Z" fill="currentColor"/>
<path d="M30.6077 23.7888C30.6077 23.4213 30.3099 23.1234 29.9424 23.1234H26.6155C26.2481 23.1234 25.9502 23.4213 25.9502 23.7888C25.9502 24.1562 26.2481 24.4541 26.6155 24.4541H29.9424C30.3099 24.4541 30.6077 24.1562 30.6077 23.7888Z" fill="currentColor"/>
<path d="M36.596 23.1233H32.6038C32.2363 23.1233 31.9385 23.4211 31.9385 23.7886C31.9385 24.1561 32.2363 24.454 32.6038 24.454H36.596C36.9635 24.454 37.2614 24.1561 37.2614 23.7886C37.2614 23.4211 36.9635 23.1233 36.596 23.1233Z" fill="currentColor"/>
<path d="M9.31612 25.7848H6.6546C6.28711 25.7848 5.98926 26.0827 5.98926 26.4501C5.98926 26.8176 6.28711 27.1155 6.6546 27.1155H9.31604C9.68353 27.1155 9.98138 26.8175 9.98138 26.4501C9.98146 26.0826 9.6836 25.7848 9.31612 25.7848Z" fill="currentColor"/>
<path d="M14.6388 25.7848H11.9774C11.6099 25.7848 11.312 26.0827 11.312 26.4501C11.312 26.8176 11.6099 27.1155 11.9774 27.1155H14.6388C15.0063 27.1155 15.3041 26.8175 15.3041 26.4501C15.3042 26.0826 15.0063 25.7848 14.6388 25.7848Z" fill="currentColor"/>
<path d="M20.627 25.7848H17.3001C16.9326 25.7848 16.6348 26.0827 16.6348 26.4501C16.6348 26.8176 16.9326 27.1155 17.3001 27.1155H20.627C20.9945 27.1155 21.2923 26.8175 21.2923 26.4501C21.2924 26.0826 20.9945 25.7848 20.627 25.7848Z" fill="currentColor"/>
<path d="M25.285 25.7848H23.2889C22.9214 25.7848 22.6235 26.0827 22.6235 26.4501C22.6235 26.8176 22.9214 27.1155 23.2889 27.1155H25.285C25.6525 27.1155 25.9503 26.8175 25.9503 26.4501C25.9503 26.0826 25.6525 25.7848 25.285 25.7848Z" fill="currentColor"/>
<path d="M31.9383 25.7848H27.9461C27.5786 25.7848 27.2808 26.0827 27.2808 26.4501C27.2808 26.8176 27.5786 27.1155 27.9461 27.1155H31.9383C32.3058 27.1155 32.6036 26.8175 32.6036 26.4501C32.6036 26.0826 32.3058 25.7848 31.9383 25.7848Z" fill="currentColor"/>
<path d="M36.596 25.7848H34.5999C34.2324 25.7848 33.9346 26.0827 33.9346 26.4501C33.9346 26.8176 34.2324 27.1155 34.5999 27.1155H36.596C36.9635 27.1155 37.2614 26.8175 37.2614 26.4501C37.2614 26.0826 36.9635 25.7848 36.596 25.7848Z" fill="currentColor"/>
</svg>
