<svg width="40" height="35" viewBox="0 0 40 35" fill="none" xmlns="http://www.w3.org/2000/svg">
<path fill-rule="evenodd" clip-rule="evenodd" d="M40 24.437V3.64961C40 1.91291 38.5871 0.5 36.8504 0.5H3.14961C1.41291 0.5 0 1.91291 0 3.64961V24.437C0 26.1737 1.41291 27.5866 3.14961 27.5866H14.91L14.5244 30.6717C14.5028 30.8264 14.4076 30.9505 14.2898 30.985C13.7617 31.1401 13.1369 31.483 12.6543 32.1189C12.232 32.6754 12.0079 33.3409 12.0079 34.0433C12.0079 34.4776 12.3622 34.8307 12.7953 34.8307H16.4551C16.889 34.8307 17.2425 34.4772 17.2425 34.0433C17.2425 33.6095 16.889 33.2559 16.4551 33.2559H13.7874C13.9921 32.8913 14.3393 32.6191 14.737 32.4953C15.4509 32.2729 15.9741 31.6811 16.0874 30.8669L16.4974 27.5866H23.5025L23.9125 30.8669C24.0119 31.5757 24.45 32.2424 25.2629 32.4953C25.6606 32.619 26.0078 32.8913 26.2125 33.2559H23.5417C23.107 33.2559 22.7543 33.6095 22.7543 34.0433C22.7543 34.4772 23.107 34.8307 23.5417 34.8307H27.2046C27.611 34.8307 27.992 34.5031 27.992 34.0433C27.992 33.3409 27.7654 32.6772 27.3456 32.1189C26.8884 31.5109 26.2594 31.1465 25.7102 30.985C25.6023 30.9533 25.4975 30.8359 25.4755 30.6709L25.0899 27.5866H36.8504C38.5871 27.5866 40 26.1737 40 24.437ZM17.874 21.2874H4.96063C4.52575 21.2874 4.17323 20.9349 4.17323 20.5V4.43701C4.17323 4.00213 4.52575 3.64961 4.96063 3.64961H17.874C18.3089 3.64961 18.6614 4.00213 18.6614 4.43701V20.5C18.6614 20.9349 18.3089 21.2874 17.874 21.2874ZM35.0394 21.2874H22.126C21.6911 21.2874 21.3386 20.9349 21.3386 20.5V4.43701C21.3386 4.00213 21.6911 3.64961 22.126 3.64961H35.0394C35.4743 3.64961 35.8268 4.00213 35.8268 4.43701V20.5C35.8268 20.9349 35.4743 21.2874 35.0394 21.2874ZM15.4611 16.3638L12.344 8.10394L12.3405 8.09475L12.3355 8.08244C12.1842 7.71449 11.8295 7.47693 11.4317 7.47693H11.4307C11.0325 7.47732 10.6779 7.71575 10.5271 8.08425C10.5246 8.09016 10.5223 8.09606 10.5201 8.10213L7.37441 16.3616C7.21961 16.768 7.42378 17.2225 7.83 17.3776C8.20425 17.5206 8.67409 17.3631 8.84606 16.922L9.4626 15.3032H13.3776L13.9877 16.9198C14.1413 17.3267 14.5955 17.5319 15.0024 17.3785C15.4093 17.225 15.6146 16.7706 15.4611 16.3638ZM10.0624 13.7284L11.4291 10.14L12.7833 13.7284H10.0624ZM25.8268 16.6418C25.8268 17.0887 26.2002 17.4292 26.6142 17.4292L26.6264 17.4292C26.8048 17.4284 28.8898 17.4193 29.4727 17.4192C31.1502 17.4192 32.515 16.0544 32.515 14.3769C32.515 13.3341 31.988 12.412 31.1865 11.8634C31.5473 11.4022 31.7627 10.8217 31.7627 10.192C31.7627 8.69488 30.5447 7.47693 29.0476 7.47693H26.6142C26.1793 7.47693 25.8268 7.82945 25.8268 8.26433V16.6418ZM27.4016 12.9083V15.8511C28.111 15.8482 29.0965 15.8445 29.4726 15.8445C30.2818 15.8445 30.9402 15.1861 30.9402 14.3769C30.9402 13.5671 30.2818 12.9083 29.4726 12.9083H27.4016ZM29.0476 11.3334H27.4016V9.05173H29.0476C29.6764 9.05173 30.1879 9.56323 30.1879 10.192C30.1879 10.8213 29.6764 11.3334 29.0476 11.3334ZM34.252 19.7126H22.9134V5.22441H34.252V19.7126ZM17.0866 19.7126H5.74803V5.22441H17.0866V19.7126ZM20.7857 34.0433C20.7857 34.4772 20.4323 34.8307 19.9983 34.8307C19.5637 34.8307 19.2109 34.4772 19.2109 34.0433C19.2109 33.6094 19.5637 33.2559 19.9983 33.2559C20.4323 33.2559 20.7857 33.6094 20.7857 34.0433ZM38.4252 24.437H1.5748C1.5748 25.3054 2.28126 26.0118 3.14961 26.0118H36.8504C37.7187 26.0118 38.4252 25.3054 38.4252 24.437ZM36.8504 2.0748C37.7187 2.0748 38.4252 2.78126 38.4252 3.64961V22.8622H1.5748V3.64961C1.5748 2.78126 2.28126 2.0748 3.14961 2.0748H36.8504Z" fill="currentColor"/>
</svg>
