<svg width="40" height="20" viewBox="0 0 40 20" fill="none" xmlns="http://www.w3.org/2000/svg">
<path fill-rule="evenodd" clip-rule="evenodd" d="M11.7987 0.539062H39.2047C39.6439 0.539062 40 0.895203 40 1.33435V15.5485C40 15.988 39.6439 16.3441 39.2044 16.3441H35.5484V18.9433C35.5484 19.3824 35.1923 19.7386 34.7528 19.7386H7.3468C6.71417 19.7386 6.11786 19.4935 5.66803 19.0483L1.13678 14.5619C0.403748 13.8359 0 12.8679 0 11.8361C0 10.8046 0.403748 9.83655 1.13708 9.11053L5.66803 4.62415C6.11786 4.17889 6.71417 3.93384 7.34711 3.93384H7.38861L10.1196 1.22968C10.5695 0.784119 11.1658 0.539062 11.7987 0.539062ZM35.5484 14.7532H38.4091V2.12994H11.7987C11.5875 2.12994 11.3889 2.21143 11.239 2.36005L9.64966 3.93353H24.8993C25.9204 3.93353 25.9183 5.52441 24.8993 5.52441H7.3468C7.13593 5.52441 6.93726 5.60651 6.78711 5.75482L2.25616 10.2409C1.82709 10.666 1.59088 11.2324 1.59088 11.8361C1.59088 12.44 1.82709 13.0064 2.25616 13.4312L6.78741 17.9176C6.93726 18.0662 7.13593 18.1477 7.34711 18.1477H33.9575V5.52472H31.478C30.4572 5.52472 30.459 3.93384 31.478 3.93384H34.7528C35.1923 3.93384 35.5484 4.28998 35.5484 4.72913V14.7532Z" fill="currentColor"/>
<path fill-rule="evenodd" clip-rule="evenodd" d="M4.23291 11.4528C4.23291 10.0026 5.41272 8.82275 6.86322 8.82275C8.31342 8.82275 9.49323 10.0026 9.49323 11.4528C9.49323 12.903 8.31342 14.0831 6.86322 14.0831C5.41272 14.0831 4.23291 12.903 4.23291 11.4528ZM5.82379 11.4528C5.82379 12.0259 6.2901 12.4922 6.86322 12.4922C7.43634 12.4922 7.90234 12.0259 7.90234 11.4528C7.90234 10.8796 7.43634 10.4136 6.86322 10.4136C6.2901 10.4136 5.82379 10.8796 5.82379 11.4528Z" fill="currentColor"/>
<path d="M17.2013 11.6505C16.941 11.4607 16.6566 11.2861 16.3481 11.1262C15.8351 10.8607 14.4364 10.5537 14.6156 9.77639C14.7966 8.99086 16.1482 9.20143 16.6548 9.44802C17.2254 9.72603 17.8318 9.69124 17.892 8.881C17.9563 8.01064 16.988 7.82845 16.3035 7.75399C15.3926 7.65511 14.4447 7.76802 13.6775 8.30513C13.1199 8.69545 12.8413 9.28444 12.8413 10.0724C12.8413 11.4887 13.9857 12.1375 15.1329 12.6429C15.6285 12.8614 16.595 13.3057 16.3401 14.0217C16.1195 14.6418 15.1084 14.6024 14.6363 14.3977C14.0531 14.1456 13.6473 13.3686 12.9924 13.8584C12.2172 14.4376 12.8385 15.2674 13.4434 15.6034C13.9784 15.9007 14.6067 16.0496 15.3279 16.0496C16.1604 16.0496 16.833 15.836 17.346 15.409C17.859 14.9818 18.1156 14.3852 18.1156 13.6185C18.1156 12.8761 17.8178 12.0997 17.2013 11.6505Z" fill="currentColor"/>
<path d="M24.2598 9.30304C24.973 9.30304 24.9803 7.78662 24.2598 7.78662H20.2901C19.9663 7.78662 19.5317 7.92761 19.5317 8.3219V15.4029C19.5317 15.7972 19.9663 15.9379 20.2901 15.9379H24.2598C24.9803 15.9379 24.973 14.4214 24.2598 14.4214H21.2715V12.5257H22.9442C23.6513 12.5257 23.6446 11.1878 22.9442 11.1878H21.2715V9.30304H24.2598Z" fill="currentColor"/>
<path fill-rule="evenodd" clip-rule="evenodd" d="M30.6602 15.3694C29.6269 16.2483 27.7137 16.2495 26.6792 15.3694C26.1812 14.9455 25.9321 14.2805 25.9321 13.3733V10.4182C25.9321 9.51125 26.1812 8.84597 26.6792 8.42208C27.7125 7.54287 29.6254 7.54195 30.6602 8.42208C31.1583 8.84597 31.4073 9.51125 31.4073 10.4182V13.3733C31.4073 14.2805 31.1583 14.9455 30.6602 15.3694ZM29.6678 10.4182C29.6678 8.95492 27.6716 8.95339 27.6716 10.4182V13.3733C27.6716 14.8402 29.6678 14.835 29.6678 13.3733V10.4182Z" fill="currentColor"/>
<path d="M27.7577 5.39014C28.3592 5.78381 29.1599 5.21496 28.9655 4.51703C28.8746 4.19049 28.578 3.95184 28.2386 3.93506C27.8996 3.91797 27.58 4.12701 27.458 4.44317C27.3258 4.7865 27.4513 5.18567 27.7577 5.39014Z" fill="currentColor"/>
</svg>
