<svg width="24" height="21" viewBox="0 0 24 21" fill="none" xmlns="http://www.w3.org/2000/svg">
<path fill-rule="evenodd" clip-rule="evenodd" d="M2.96415 20.6H21.0361C22.8841 20.6 24.0361 18.596 23.1121 17L14.0761 1.38804C13.1521 -0.20796 10.8481 -0.20796 9.92415 1.38804L0.888145 17C-0.0358546 18.596 1.11615 20.6 2.96415 20.6ZM12.0001 12.2C11.3401 12.2 10.8001 11.66 10.8001 11V8.60004C10.8001 7.94004 11.3401 7.40004 12.0001 7.40004C12.6601 7.40004 13.2001 7.94004 13.2001 8.60004V11C13.2001 11.66 12.6601 12.2 12.0001 12.2ZM10.8001 17H13.2001V14.6H10.8001V17Z" fill="#FF6340"/>
</svg>
