<svg viewBox="0 0 560 20" class="svg">
    <path d="M420 20c21.5-.4 38.8-2.5 51.1-4.5 13.4-2.2 26.5-5.2 27.3-5.4C514 6.5 518 4.7 528.5 2.7 535.6 1.4 546.4-.1 560 0v20H420zM420 20c-21.5-.4-38.8-2.5-51.1-4.5-13.4-2.2-26.5-5.2-27.3-5.4C326 6.5 322 4.7 311.5 2.7 304.3 1.4 293.6-.1 280 0v20h140zM140 20c21.5-.4 38.8-2.5 51.1-4.5 13.4-2.2 26.5-5.2 27.3-5.4C234 6.5 238 4.7 248.5 2.7 255.6 1.4 266.4-.1 280 0v20H140zM140 20c-21.5-.4-38.8-2.5-51.1-4.5-13.4-2.2-26.5-5.2-27.3-5.4C46 6.5 42 4.7 31.5 2.7 24.3 1.4 13.6-.1 0 0v20h140z" fill="rgba(36, 51, 66, 0.2)"></path>
</svg>